<svg width="100" height="100" viewBox="0 0 100 100" fill="none" xmlns="http://www.w3.org/2000/svg">
<path d="M100 50C100 77.6142 77.6142 100 50 100C22.3858 100 0 77.6142 0 50C0 22.3858 22.3858 0 50 0C77.6142 0 100 22.3858 100 50Z" fill="#9FACD5"/>
<path d="M28.125 76.5C24.45 76.5 21.3438 75.2313 18.8063 72.6938C16.2688 70.1563 15 67.05 15 63.375C15 59.7 16.2688 56.5938 18.8063 54.0563C21.3438 51.5188 24.45 50.25 28.125 50.25C31.8 50.25 34.9063 51.5188 37.4438 54.0563C39.9813 56.5938 41.25 59.7 41.25 63.375C41.25 67.05 39.9813 70.1563 37.4438 72.6938C34.9063 75.2313 31.8 76.5 28.125 76.5ZM71.9625 76.5C68.2875 76.5 65.1813 75.2313 62.6438 72.6938C60.1063 70.1563 58.8375 67.05 58.8375 63.375C58.8375 59.7 60.1063 56.5938 62.6438 54.0563C65.1813 51.5188 68.2875 50.25 71.9625 50.25C75.6375 50.25 78.7438 51.5188 81.2813 54.0563C83.8188 56.5938 85.0875 59.7 85.0875 63.375C85.0875 67.05 83.8188 70.1563 81.2813 72.6938C78.7438 75.2313 75.6375 76.5 71.9625 76.5ZM28.125 71.25C30.2833 71.25 32.1354 70.4771 33.6813 68.9313C35.2271 67.3854 36 65.5333 36 63.375C36 61.2167 35.2271 59.3646 33.6813 57.8188C32.1354 56.2729 30.2833 55.5 28.125 55.5C25.9667 55.5 24.1146 56.2729 22.5688 57.8188C21.0229 59.3646 20.25 61.2167 20.25 63.375C20.25 65.5333 21.0229 67.3854 22.5688 68.9313C24.1146 70.4771 25.9667 71.25 28.125 71.25ZM71.9625 71.25C74.1208 71.25 75.9729 70.4771 77.5188 68.9313C79.0646 67.3854 79.8375 65.5333 79.8375 63.375C79.8375 61.2167 79.0646 59.3646 77.5188 57.8188C75.9729 56.2729 74.1208 55.5 71.9625 55.5C69.8042 55.5 67.9521 56.2729 66.4063 57.8188C64.8604 59.3646 64.0875 61.2167 64.0875 63.375C64.0875 65.5333 64.8604 67.3854 66.4063 68.9313C67.9521 70.4771 69.8042 71.25 71.9625 71.25ZM50.0875 39.6625C46.4125 39.6625 43.3063 38.3938 40.7688 35.8563C38.2313 33.3188 36.9625 30.2125 36.9625 26.5375C36.9625 22.8625 38.2313 19.7563 40.7688 17.2188C43.3063 14.6813 46.4125 13.4125 50.0875 13.4125C53.7625 13.4125 56.8688 14.6813 59.4063 17.2188C61.9438 19.7563 63.2125 22.8625 63.2125 26.5375C63.2125 30.2125 61.9438 33.3188 59.4063 35.8563C56.8688 38.3938 53.7625 39.6625 50.0875 39.6625V39.6625ZM50.0875 34.4125C52.2458 34.4125 54.0979 33.6396 55.6438 32.0938C57.1896 30.5479 57.9625 28.6958 57.9625 26.5375C57.9625 24.3792 57.1896 22.5271 55.6438 20.9813C54.0979 19.4354 52.2458 18.6625 50.0875 18.6625C47.9292 18.6625 46.0771 19.4354 44.5313 20.9813C42.9854 22.5271 42.2125 24.3792 42.2125 26.5375C42.2125 28.6958 42.9854 30.5479 44.5313 32.0938C46.0771 33.6396 47.9292 34.4125 50.0875 34.4125V34.4125Z" fill="white"/>
</svg>
