<svg width="398" height="295" viewBox="0 0 398 295" fill="none" xmlns="http://www.w3.org/2000/svg">
<circle cx="198.955" cy="51.7571" r="43.2571" stroke="white" stroke-width="17"/>
<circle cx="263.243" cy="157.45" r="43.2571" stroke="white" stroke-width="17"/>
<circle cx="135.757" cy="157.45" r="43.2571" stroke="white" stroke-width="17"/>
<path d="M21.5521 276V256.5L22.8271 259.95L0.552051 223.5H6.47705L26.0521 255.525H22.9021L42.4771 223.5H48.0271L25.7521 259.95L27.0271 256.5V276H21.5521ZM67.0917 276.375C63.2917 276.375 59.8667 275.525 56.8167 273.825C53.8167 272.075 51.4417 269.7 49.6917 266.7C47.9417 263.65 47.0667 260.175 47.0667 256.275C47.0667 252.325 47.9417 248.85 49.6917 245.85C51.4417 242.85 53.8167 240.5 56.8167 238.8C59.8167 237.1 63.2417 236.25 67.0917 236.25C70.9917 236.25 74.4417 237.1 77.4417 238.8C80.4917 240.5 82.8667 242.85 84.5667 245.85C86.3167 248.85 87.1917 252.325 87.1917 256.275C87.1917 260.175 86.3167 263.65 84.5667 266.7C82.8667 269.7 80.4917 272.075 77.4417 273.825C74.3917 275.525 70.9417 276.375 67.0917 276.375ZM67.0917 271.65C69.9417 271.65 72.4667 271.025 74.6667 269.775C76.8667 268.475 78.5917 266.675 79.8417 264.375C81.1417 262.025 81.7917 259.325 81.7917 256.275C81.7917 253.175 81.1417 250.475 79.8417 248.175C78.5917 245.875 76.8667 244.1 74.6667 242.85C72.4667 241.55 69.9667 240.9 67.1667 240.9C64.3667 240.9 61.8667 241.55 59.6667 242.85C57.4667 244.1 55.7167 245.875 54.4167 248.175C53.1167 250.475 52.4667 253.175 52.4667 256.275C52.4667 259.325 53.1167 262.025 54.4167 264.375C55.7167 266.675 57.4667 268.475 59.6667 269.775C61.8667 271.025 64.3417 271.65 67.0917 271.65ZM114.338 276.375C110.988 276.375 108.063 275.75 105.563 274.5C103.063 273.25 101.113 271.375 99.7132 268.875C98.3632 266.375 97.6882 263.25 97.6882 259.5V236.625H103.013V258.9C103.013 263.1 104.038 266.275 106.088 268.425C108.188 270.525 111.113 271.575 114.863 271.575C117.613 271.575 119.988 271.025 121.988 269.925C124.038 268.775 125.588 267.125 126.638 264.975C127.738 262.825 128.288 260.25 128.288 257.25V236.625H133.613V276H128.513V265.2L129.338 267.15C128.088 270.05 126.138 272.325 123.488 273.975C120.888 275.575 117.838 276.375 114.338 276.375ZM148.454 276V236.625H153.554V247.35L153.029 245.475C154.129 242.475 155.979 240.2 158.579 238.65C161.179 237.05 164.404 236.25 168.254 236.25V241.425C168.054 241.425 167.854 241.425 167.654 241.425C167.454 241.375 167.254 241.35 167.054 241.35C162.904 241.35 159.654 242.625 157.304 245.175C154.954 247.675 153.779 251.25 153.779 255.9V276H148.454ZM192.692 276.45C188.792 276.45 185.042 275.825 181.442 274.575C177.892 273.275 175.142 271.625 173.192 269.625L175.367 265.35C177.217 267.15 179.692 268.675 182.792 269.925C185.942 271.125 189.242 271.725 192.692 271.725C195.992 271.725 198.667 271.325 200.717 270.525C202.817 269.675 204.342 268.55 205.292 267.15C206.292 265.75 206.792 264.2 206.792 262.5C206.792 260.45 206.192 258.8 204.992 257.55C203.842 256.3 202.317 255.325 200.417 254.625C198.517 253.875 196.417 253.225 194.117 252.675C191.817 252.125 189.517 251.55 187.217 250.95C184.917 250.3 182.792 249.45 180.842 248.4C178.942 247.35 177.392 245.975 176.192 244.275C175.042 242.525 174.467 240.25 174.467 237.45C174.467 234.85 175.142 232.475 176.492 230.325C177.892 228.125 180.017 226.375 182.867 225.075C185.717 223.725 189.367 223.05 193.817 223.05C196.767 223.05 199.692 223.475 202.592 224.325C205.492 225.125 207.992 226.25 210.092 227.7L208.217 232.125C205.967 230.625 203.567 229.525 201.017 228.825C198.517 228.125 196.092 227.775 193.742 227.775C190.592 227.775 187.992 228.2 185.942 229.05C183.892 229.9 182.367 231.05 181.367 232.5C180.417 233.9 179.942 235.5 179.942 237.3C179.942 239.35 180.517 241 181.667 242.25C182.867 243.5 184.417 244.475 186.317 245.175C188.267 245.875 190.392 246.5 192.692 247.05C194.992 247.6 197.267 248.2 199.517 248.85C201.817 249.5 203.917 250.35 205.817 251.4C207.767 252.4 209.317 253.75 210.467 255.45C211.667 257.15 212.267 259.375 212.267 262.125C212.267 264.675 211.567 267.05 210.167 269.25C208.767 271.4 206.617 273.15 203.717 274.5C200.867 275.8 197.192 276.45 192.692 276.45ZM243.559 276.375C240.159 276.375 237.084 275.6 234.334 274.05C231.584 272.45 229.384 270.175 227.734 267.225C226.134 264.225 225.334 260.575 225.334 256.275C225.334 251.975 226.134 248.35 227.734 245.4C229.334 242.4 231.509 240.125 234.259 238.575C237.009 237.025 240.109 236.25 243.559 236.25C247.309 236.25 250.659 237.1 253.609 238.8C256.609 240.45 258.959 242.8 260.659 245.85C262.359 248.85 263.209 252.325 263.209 256.275C263.209 260.275 262.359 263.775 260.659 266.775C258.959 269.775 256.609 272.125 253.609 273.825C250.659 275.525 247.309 276.375 243.559 276.375ZM223.234 290.55V236.625H228.334V248.475L227.809 256.35L228.559 264.3V290.55H223.234ZM243.184 271.65C245.984 271.65 248.484 271.025 250.684 269.775C252.884 268.475 254.634 266.675 255.934 264.375C257.234 262.025 257.884 259.325 257.884 256.275C257.884 253.225 257.234 250.55 255.934 248.25C254.634 245.95 252.884 244.15 250.684 242.85C248.484 241.55 245.984 240.9 243.184 240.9C240.384 240.9 237.859 241.55 235.609 242.85C233.409 244.15 231.659 245.95 230.359 248.25C229.109 250.55 228.484 253.225 228.484 256.275C228.484 259.325 229.109 262.025 230.359 264.375C231.659 266.675 233.409 268.475 235.609 269.775C237.859 271.025 240.384 271.65 243.184 271.65ZM298.519 276V267.3L298.294 265.875V251.325C298.294 247.975 297.344 245.4 295.444 243.6C293.594 241.8 290.819 240.9 287.119 240.9C284.569 240.9 282.144 241.325 279.844 242.175C277.544 243.025 275.594 244.15 273.994 245.55L271.594 241.575C273.594 239.875 275.994 238.575 278.794 237.675C281.594 236.725 284.544 236.25 287.644 236.25C292.744 236.25 296.669 237.525 299.419 240.075C302.219 242.575 303.619 246.4 303.619 251.55V276H298.519ZM284.944 276.375C281.994 276.375 279.419 275.9 277.219 274.95C275.069 273.95 273.419 272.6 272.269 270.9C271.119 269.15 270.544 267.15 270.544 264.9C270.544 262.85 271.019 261 271.969 259.35C272.969 257.65 274.569 256.3 276.769 255.3C279.019 254.25 282.019 253.725 285.769 253.725H299.344V257.7H285.919C282.119 257.7 279.469 258.375 277.969 259.725C276.519 261.075 275.794 262.75 275.794 264.75C275.794 267 276.669 268.8 278.419 270.15C280.169 271.5 282.619 272.175 285.769 272.175C288.769 272.175 291.344 271.5 293.494 270.15C295.694 268.75 297.294 266.75 298.294 264.15L299.494 267.825C298.494 270.425 296.744 272.5 294.244 274.05C291.794 275.6 288.694 276.375 284.944 276.375ZM334.433 276.375C330.533 276.375 327.033 275.525 323.933 273.825C320.883 272.075 318.483 269.7 316.733 266.7C314.983 263.65 314.108 260.175 314.108 256.275C314.108 252.325 314.983 248.85 316.733 245.85C318.483 242.85 320.883 240.5 323.933 238.8C327.033 237.1 330.533 236.25 334.433 236.25C337.783 236.25 340.808 236.9 343.508 238.2C346.208 239.5 348.333 241.45 349.883 244.05L345.908 246.75C344.558 244.75 342.883 243.275 340.883 242.325C338.883 241.375 336.708 240.9 334.358 240.9C331.558 240.9 329.033 241.55 326.783 242.85C324.533 244.1 322.758 245.875 321.458 248.175C320.158 250.475 319.508 253.175 319.508 256.275C319.508 259.375 320.158 262.075 321.458 264.375C322.758 266.675 324.533 268.475 326.783 269.775C329.033 271.025 331.558 271.65 334.358 271.65C336.708 271.65 338.883 271.175 340.883 270.225C342.883 269.275 344.558 267.825 345.908 265.875L349.883 268.575C348.333 271.125 346.208 273.075 343.508 274.425C340.808 275.725 337.783 276.375 334.433 276.375ZM376.409 276.375C372.309 276.375 368.709 275.525 365.609 273.825C362.509 272.075 360.084 269.7 358.334 266.7C356.584 263.65 355.709 260.175 355.709 256.275C355.709 252.375 356.534 248.925 358.184 245.925C359.884 242.925 362.184 240.575 365.084 238.875C368.034 237.125 371.334 236.25 374.984 236.25C378.684 236.25 381.959 237.1 384.809 238.8C387.709 240.45 389.984 242.8 391.634 245.85C393.284 248.85 394.109 252.325 394.109 256.275C394.109 256.525 394.084 256.8 394.034 257.1C394.034 257.35 394.034 257.625 394.034 257.925H359.759V253.95H391.184L389.084 255.525C389.084 252.675 388.459 250.15 387.209 247.95C386.009 245.7 384.359 243.95 382.259 242.7C380.159 241.45 377.734 240.825 374.984 240.825C372.284 240.825 369.859 241.45 367.709 242.7C365.559 243.95 363.884 245.7 362.684 247.95C361.484 250.2 360.884 252.775 360.884 255.675V256.5C360.884 259.5 361.534 262.15 362.834 264.45C364.184 266.7 366.034 268.475 368.384 269.775C370.784 271.025 373.509 271.65 376.559 271.65C378.959 271.65 381.184 271.225 383.234 270.375C385.334 269.525 387.134 268.225 388.634 266.475L391.634 269.925C389.884 272.025 387.684 273.625 385.034 274.725C382.434 275.825 379.559 276.375 376.409 276.375Z" fill="white"/>
</svg>
